<?xml version="1.0" standalone="no"?>
<!DOCTYPE svg PUBLIC "-//W3C//DTD SVG 20010904//EN"
 "http://www.w3.org/TR/2001/REC-SVG-20010904/DTD/svg10.dtd">
<svg version="1.0" xmlns="http://www.w3.org/2000/svg"
 width="960.000000pt" height="330.000000pt" viewBox="0 0 960.000000 330.000000"
 preserveAspectRatio="xMidYMid meet">
<metadata>
Created by potrace 1.16, written by Peter Selinger 2001-2019
</metadata>
<g transform="translate(0.000000,330.000000) scale(0.100000,-0.100000)"
fill="#000000" stroke="none">
<path d="M4725 2881 c-74 -34 -125 -111 -125 -188 1 -82 69 -170 150 -194 l40
-12 0 -142 0 -142 -152 -7 c-529 -23 -922 -130 -978 -266 -27 -64 16 -122 133
-180 45 -23 90 -39 99 -36 10 2 16 0 13 -4 -3 -5 3 -10 12 -13 15 -3 15 -5 3
-10 -8 -4 -267 -69 -575 -146 -435 -108 -581 -140 -655 -145 -311 -21 -559
-116 -620 -237 -25 -48 -25 -80 0 -128 32 -65 137 -133 268 -175 l52 -18 0
-119 0 -119 -95 0 -95 0 0 -205 0 -205 205 0 205 0 0 205 0 205 -95 0 -95 0 0
116 0 116 28 -6 c125 -25 189 -31 357 -31 168 0 232 6 358 31 l27 6 0 -116 0
-116 -95 0 -95 0 0 -205 0 -205 205 0 205 0 0 205 0 205 -95 0 -95 0 0 119 0
119 53 18 c173 56 287 151 287 239 0 40 -35 99 -79 134 -108 85 -272 137 -536
167 -59 7 -51 9 488 144 l548 138 117 -24 c150 -30 347 -52 540 -60 l152 -7 0
-92 0 -92 -152 -7 c-604 -26 -1024 -163 -984 -320 16 -63 121 -133 264 -176
l72 -22 0 -139 0 -139 -95 0 -95 0 0 -205 0 -205 205 0 205 0 0 205 0 205 -95
0 -95 0 0 136 c0 124 1 135 18 130 91 -27 383 -63 595 -72 l157 -7 0 -94 0
-93 -95 0 -95 0 0 -205 0 -205 205 0 205 0 0 205 0 205 -95 0 -95 0 0 93 0 94
157 7 c212 9 504 45 596 72 16 5 17 -6 17 -130 l0 -136 -95 0 -95 0 0 -205 0
-205 205 0 205 0 0 205 0 205 -95 0 -95 0 0 139 0 139 73 22 c142 43 247 113
263 176 40 157 -380 294 -983 320 l-153 7 0 92 0 92 153 7 c192 8 389 30 539
60 l117 24 548 -138 c539 -135 547 -137 488 -144 -264 -30 -428 -82 -536 -167
-44 -35 -79 -94 -79 -134 0 -88 114 -183 288 -239 l52 -18 0 -119 0 -119 -95
0 -95 0 0 -205 0 -205 205 0 205 0 0 205 0 205 -95 0 -95 0 0 116 0 116 28 -6
c125 -25 189 -31 357 -31 168 0 232 6 358 31 l27 6 0 -116 0 -116 -95 0 -95 0
0 -205 0 -205 205 0 205 0 0 205 0 205 -95 0 -95 0 0 119 0 119 53 18 c130 42
235 110 267 175 25 48 25 80 0 128 -61 121 -309 216 -620 237 -74 5 -220 37
-655 145 -308 77 -567 142 -575 146 -12 5 -12 7 3 10 9 3 15 8 12 13 -3 4 3 6
13 4 9 -3 54 13 99 36 117 58 160 116 133 180 -56 136 -449 243 -977 266
l-153 7 0 142 0 142 40 12 c52 15 108 65 131 116 75 164 -103 342 -266 266z
m121 -146 c4 -8 1 -22 -6 -30 -12 -15 -3 -37 25 -57 7 -5 6 -8 -1 -8 -6 0 -20
11 -32 25 -12 14 -27 25 -33 25 -7 0 -9 -10 -7 -25 4 -18 1 -25 -11 -25 -13 0
-16 11 -16 55 l0 55 38 0 c24 0 40 -5 43 -15z m409 -569 c72 -9 182 -26 245
-38 107 -20 112 -22 77 -30 -50 -10 -86 -30 -119 -65 -106 -111 -58 -282 93
-333 l52 -18 -54 -12 c-155 -33 -498 -70 -661 -70 l-68 0 0 43 c0 42 1 44 40
56 83 25 150 113 150 196 0 78 -56 158 -132 189 -162 68 -332 -109 -259 -269
23 -51 79 -101 131 -116 39 -12 40 -14 40 -56 l0 -43 -67 0 c-164 0 -507 37
-662 70 l-54 12 52 18 c155 52 200 234 85 342 -32 30 -91 57 -126 59 -75 4
284 63 477 79 158 12 606 4 760 -14z m-1393 -128 c-82 -85 -82 -200 1 -287 31
-32 31 -33 7 -26 -14 4 -56 24 -95 44 -157 83 -152 173 13 259 46 23 88 42 95
42 6 0 -3 -15 -21 -32z m1973 -17 c72 -39 115 -85 115 -126 0 -41 -43 -87
-115 -126 -38 -20 -81 -40 -95 -44 -24 -7 -24 -6 7 26 18 19 39 51 47 71 31
73 14 153 -47 217 -31 32 -31 33 -7 26 14 -4 57 -24 95 -44z m-1787 -124 c-6
-78 -70 -77 -76 1 -2 32 1 43 19 56 21 14 24 14 41 -1 14 -12 18 -28 16 -56z
m1597 45 c3 -8 1 -20 -4 -25 -6 -6 -6 -16 1 -27 18 -29 3 -50 -37 -50 -19 0
-35 3 -35 8 0 4 15 7 32 7 40 0 52 30 17 43 -19 7 -20 10 -6 15 10 4 17 14 17
23 0 13 -6 15 -32 10 -30 -5 -31 -4 -15 8 21 16 53 10 62 -12z m-825 -36 c0
-44 4 -55 18 -59 9 -3 -3 -5 -28 -5 -25 0 -37 2 -27 5 13 3 17 15 17 49 0 28
-4 43 -10 39 -5 -3 -10 -2 -10 3 0 13 11 22 27 22 9 0 13 -16 13 -54z m-1717
-541 c274 -50 448 -155 447 -272 -1 -73 -88 -154 -220 -206 -104 -40 -110 -41
-110 -19 0 13 12 22 40 31 52 15 108 65 131 116 75 164 -103 342 -266 266 -74
-34 -125 -111 -125 -188 1 -82 69 -170 150 -194 31 -10 40 -17 40 -35 0 -16
-7 -24 -27 -28 -126 -25 -190 -31 -358 -31 -168 0 -232 6 -357 31 -21 4 -28
12 -28 28 0 18 9 25 40 35 52 15 108 65 131 116 75 164 -103 342 -266 266 -74
-34 -125 -111 -125 -188 1 -82 69 -170 150 -194 28 -9 40 -18 40 -31 0 -22 -6
-21 -110 19 -132 52 -219 133 -220 206 0 41 33 100 74 131 88 67 248 124 406
145 47 6 96 13 110 15 56 9 371 -4 453 -19z m2152 1 c72 -9 182 -26 245 -38
107 -20 112 -22 77 -30 -50 -10 -86 -30 -119 -65 -104 -109 -60 -276 87 -332
56 -21 55 -22 -75 -46 -133 -24 -322 -43 -493 -51 l-157 -7 0 45 c0 44 1 45
40 57 83 25 150 113 150 196 0 78 -56 158 -132 189 -162 68 -332 -109 -259
-269 23 -51 79 -101 131 -116 39 -12 40 -13 40 -57 l0 -45 -157 7 c-171 8
-360 27 -493 51 -130 24 -131 25 -75 46 151 57 192 235 79 341 -32 30 -91 57
-126 59 -75 4 284 63 477 79 158 12 606 4 760 -14z m1848 -1 c274 -50 448
-155 447 -272 -1 -73 -88 -154 -220 -206 -104 -40 -110 -41 -110 -19 0 13 12
22 40 31 52 15 108 65 131 116 75 164 -103 342 -266 266 -74 -34 -125 -111
-125 -188 1 -82 69 -170 150 -194 31 -10 40 -17 40 -35 0 -16 -7 -24 -27 -28
-126 -25 -190 -31 -358 -31 -168 0 -232 6 -357 31 -21 4 -28 12 -28 28 0 18 9
25 40 35 81 24 149 112 150 194 0 77 -51 154 -125 188 -163 76 -341 -102 -266
-266 23 -51 79 -101 131 -116 28 -9 40 -18 40 -31 0 -22 -6 -21 -110 19 -132
52 -219 133 -220 206 0 41 33 100 74 131 88 67 248 124 406 145 47 6 96 13
110 15 56 9 371 -4 453 -19z m-3241 -127 c-82 -85 -82 -200 1 -287 31 -32 31
-33 7 -26 -14 4 -56 24 -95 44 -157 83 -152 173 13 259 46 23 88 42 95 42 6 0
-3 -15 -21 -32z m1973 -17 c72 -39 115 -85 115 -126 0 -41 -43 -87 -115 -126
-38 -20 -81 -40 -95 -44 -24 -7 -24 -6 7 26 18 19 39 51 47 71 31 73 14 153
-47 217 -31 32 -31 33 -7 26 14 -4 57 -24 95 -44z m-3387 -124 c-6 -78 -70
-77 -76 1 -2 32 1 43 19 56 21 14 24 14 41 -1 14 -12 18 -28 16 -56z m1600 0
c-6 -78 -70 -77 -76 1 -2 32 1 43 19 56 21 14 24 14 41 -1 14 -12 18 -28 16
-56z m1600 34 c2 -6 -13 -28 -34 -48 l-38 -36 37 5 c20 2 37 0 37 -4 0 -4 -21
-8 -47 -8 l-47 0 37 38 c20 21 37 46 37 55 0 20 -30 23 -48 5 -9 -9 -12 -9
-12 0 0 6 8 15 18 21 18 11 52 -5 60 -28z m800 -34 c-6 -78 -70 -77 -76 1 -2
32 1 43 19 56 21 14 24 14 41 -1 14 -12 18 -28 16 -56z m800 34 c2 -6 -13 -28
-34 -48 l-38 -36 37 5 c20 2 37 0 37 -4 0 -4 -21 -8 -47 -8 l-47 0 37 38 c20
21 37 46 37 55 0 20 -30 23 -48 5 -9 -9 -12 -9 -12 0 0 6 8 15 18 21 18 11 52
-5 60 -28z m-4028 -25 c0 -44 4 -55 18 -59 9 -3 -3 -5 -28 -5 -25 0 -37 2 -27
5 13 3 17 15 17 49 0 28 -4 43 -10 39 -5 -3 -10 -2 -10 3 0 13 11 22 27 22 9
0 13 -16 13 -54z m1600 0 c0 -44 4 -55 18 -59 9 -3 -3 -5 -28 -5 -25 0 -37 2
-27 5 13 3 17 15 17 49 0 28 -4 43 -10 39 -5 -3 -10 -2 -10 3 0 13 11 22 27
22 9 0 13 -16 13 -54z m-786 -652 c22 -22 21 -28 -16 -70 l-33 -37 33 6 c18 4
32 2 32 -3 0 -6 -21 -10 -47 -10 l-47 0 37 38 c20 21 37 46 37 55 0 20 -30 23
-48 5 -9 -9 -12 -9 -12 0 0 10 27 31 42 32 4 0 14 -7 22 -16z m1600 0 c22 -22
21 -28 -16 -70 l-33 -37 33 6 c18 4 32 2 32 -3 0 -6 -21 -10 -47 -10 l-47 0
37 38 c20 21 37 46 37 55 0 20 -30 23 -48 5 -9 -9 -12 -9 -12 0 0 10 27 31 42
32 4 0 14 -7 22 -16z m-3216 -1 c-16 -2 -28 -10 -28 -18 0 -8 12 -15 28 -17
22 -2 28 -8 30 -35 4 -39 -25 -60 -58 -43 -28 15 -25 20 9 14 21 -4 30 -2 35
11 9 23 -12 47 -35 40 -16 -5 -19 -1 -19 24 0 29 3 31 33 30 30 -2 30 -2 5 -6z
m823 -30 c0 -21 2 -48 3 -60 2 -19 -2 -23 -23 -22 -14 0 -20 3 -13 6 21 8 13
23 -13 23 -30 0 -31 9 -4 54 28 48 49 47 50 -1z m1600 0 c0 -21 2 -48 3 -60 2
-19 -2 -23 -23 -22 -14 0 -20 3 -13 6 21 8 13 23 -13 23 -30 0 -31 9 -4 54 28
48 49 47 50 -1z m1600 0 c0 -21 2 -48 3 -60 2 -19 -2 -23 -23 -22 -14 0 -20 3
-13 6 21 8 13 23 -13 23 -30 0 -31 9 -4 54 28 48 49 47 50 -1z m800 0 c0 -21
2 -48 3 -60 2 -19 -2 -23 -23 -22 -14 0 -20 3 -13 6 21 8 13 23 -13 23 -30 0
-31 9 -4 54 28 48 49 47 50 -1z"/>
<path d="M4790 2720 c0 -16 5 -21 23 -18 12 2 22 10 22 18 0 8 -10 16 -22 18
-18 3 -23 -2 -23 -18z"/>
<path d="M3984 1925 c-9 -38 3 -75 26 -75 23 0 35 37 26 75 -4 16 -13 25 -26
25 -13 0 -22 -9 -26 -25z"/>
<path d="M2384 1125 c-9 -38 3 -75 26 -75 23 0 35 37 26 75 -4 16 -13 25 -26
25 -13 0 -22 -9 -26 -25z"/>
<path d="M3984 1125 c-9 -38 3 -75 26 -75 13 0 22 9 26 25 9 38 -3 75 -26 75
-13 0 -22 -9 -26 -25z"/>
<path d="M6384 1125 c-9 -38 3 -75 26 -75 13 0 22 9 26 25 9 38 -3 75 -26 75
-13 0 -22 -9 -26 -25z"/>
<path d="M3202 415 c-10 -21 -9 -25 3 -25 9 0 15 10 15 25 0 14 -2 25 -3 25
-2 0 -9 -11 -15 -25z"/>
<path d="M4802 415 c-10 -21 -9 -25 3 -25 9 0 15 10 15 25 0 14 -2 25 -3 25
-2 0 -9 -11 -15 -25z"/>
<path d="M6402 415 c-10 -21 -9 -25 3 -25 9 0 15 10 15 25 0 14 -2 25 -3 25
-2 0 -9 -11 -15 -25z"/>
<path d="M7202 415 c-10 -21 -9 -25 3 -25 9 0 15 10 15 25 0 14 -2 25 -3 25
-2 0 -9 -11 -15 -25z"/>
<path d="M117 2754 c-4 -4 -7 -14 -7 -23 0 -12 3 -12 12 -3 7 7 16 12 20 12
13 0 9 -88 -4 -93 -7 -3 3 -5 22 -5 19 0 29 2 23 5 -14 5 -18 93 -5 93 4 0 14
-6 21 -12 10 -11 12 -9 9 7 -2 15 -12 21 -43 23 -23 2 -44 0 -48 -4z"/>
<path d="M1309 2758 c0 -2 -1 -29 -2 -61 -2 -46 1 -57 13 -57 12 0 15 9 13 38
-3 33 -2 35 8 15 16 -31 22 -29 42 10 l16 32 0 -42 c1 -24 -4 -43 -11 -46 -7
-3 -4 -6 7 -6 18 -1 20 5 19 56 -2 65 -15 78 -34 33 -16 -38 -25 -38 -39 0 -5
17 -15 30 -20 30 -6 0 -11 -1 -12 -2z"/>
<path d="M1435 2700 c0 -48 3 -60 16 -60 12 0 15 7 11 25 -3 17 0 25 10 25 8
0 20 -11 26 -25 6 -14 18 -25 26 -25 10 0 5 11 -15 33 l-30 32 26 22 c14 12
20 25 15 28 -12 7 -32 -3 -26 -14 3 -4 -5 -13 -16 -20 -19 -12 -20 -11 -14 13
5 21 3 26 -11 26 -15 0 -18 -9 -18 -60z"/>
<path d="M1590 2690 c0 -54 4 -72 15 -77 9 -3 19 -2 23 2 4 4 1 10 -5 12 -9 3
-13 25 -13 63 0 37 5 60 13 63 6 3 2 6 -10 6 -22 1 -23 -3 -23 -69z"/>
<path d="M1669 2758 c0 -2 -1 -29 -2 -61 -2 -46 1 -57 13 -57 12 0 15 9 13 38
-3 33 -2 35 8 15 16 -31 22 -29 42 10 l16 32 0 -42 c1 -24 -4 -43 -11 -46 -7
-3 -4 -6 7 -6 18 -1 20 5 19 56 -2 65 -15 78 -34 33 -16 -38 -25 -38 -39 0 -5
17 -15 30 -20 30 -6 0 -11 -1 -12 -2z"/>
<path d="M2035 2700 c0 -48 3 -60 16 -60 12 0 15 7 11 25 -3 17 0 25 10 25 8
0 20 -11 26 -25 6 -14 18 -25 26 -25 10 0 5 11 -15 33 l-30 32 26 22 c14 12
20 25 15 28 -12 7 -32 -3 -26 -14 3 -4 -5 -13 -16 -20 -19 -12 -20 -11 -14 13
5 21 3 26 -11 26 -15 0 -18 -9 -18 -60z"/>
<path d="M2178 2753 c7 -3 12 -26 12 -63 0 -38 -4 -60 -12 -63 -7 -2 -10 -8
-6 -12 4 -4 14 -5 23 -2 11 5 15 23 15 77 0 66 -1 70 -22 69 -13 0 -17 -3 -10
-6z"/>
<path d="M246 2715 c-9 -9 -16 -25 -16 -35 0 -26 40 -51 68 -43 32 8 27 18
-10 18 -17 0 -33 6 -35 13 -3 8 8 12 37 12 42 0 42 0 28 23 -19 28 -50 33 -72
12z m59 -15 c4 -6 -7 -10 -24 -10 -17 0 -31 5 -31 10 0 6 11 10 24 10 14 0 28
-4 31 -10z"/>
<path d="M359 2725 c0 0 -1 -19 -2 -43 -2 -32 2 -42 13 -42 12 0 15 8 12 36
-4 33 -2 35 19 32 27 -3 39 -45 17 -59 -9 -6 -7 -9 8 -9 17 0 20 5 16 33 -6
44 -18 56 -53 54 -16 -1 -29 -2 -30 -2z"/>
<path d="M489 2714 c-10 -13 -10 -17 2 -25 8 -5 22 -9 31 -9 9 0 20 -5 23 -10
10 -16 -26 -24 -46 -11 -15 9 -19 8 -19 -3 0 -18 38 -28 62 -15 27 15 18 43
-15 47 -15 2 -27 8 -27 14 0 6 12 8 30 5 31 -7 42 6 14 17 -25 10 -41 7 -55
-10z"/>
<path d="M607 2712 c-24 -26 -21 -49 8 -68 23 -15 27 -15 50 0 30 19 32 46 7
69 -24 22 -45 21 -65 -1z m61 -29 c-2 -22 -8 -28 -28 -28 -20 0 -26 6 -28 28
-3 24 0 27 28 27 28 0 31 -3 28 -27z"/>
<path d="M720 2720 c0 -5 5 -10 10 -10 15 0 12 -57 -2 -63 -7 -3 5 -5 27 -5
22 0 30 3 18 5 -41 8 -22 63 21 63 14 0 17 3 9 11 -8 8 -17 8 -32 0 -14 -8
-21 -8 -21 -1 0 5 -7 10 -15 10 -8 0 -15 -4 -15 -10z"/>
<path d="M867 2724 c-13 -13 -7 -24 14 -24 11 0 19 5 17 12 -5 14 -22 21 -31
12z"/>
<path d="M1090 2720 c-11 -7 -7 -10 18 -10 17 0 32 -4 32 -10 0 -5 -13 -10
-29 -10 -18 0 -31 -6 -35 -17 -10 -25 16 -40 59 -35 21 3 33 7 27 11 -6 3 -12
22 -14 41 -3 37 -28 50 -58 30z m48 -52 c-7 -20 -48 -23 -48 -4 0 11 9 16 26
16 16 0 24 -5 22 -12z"/>
<path d="M1814 2656 c-3 -8 -4 -23 -2 -33 3 -14 8 -11 21 15 15 28 16 32 2 32
-9 0 -18 -6 -21 -14z"/>
<path d="M860 2650 c0 -5 9 -10 20 -10 11 0 20 5 20 10 0 6 -9 10 -20 10 -11
0 -20 -4 -20 -10z"/>
<path d="M1180 2620 c0 -6 27 -10 60 -10 33 0 60 4 60 10 0 6 -27 10 -60 10
-33 0 -60 -4 -60 -10z"/>
<path d="M115 1900 c0 -48 3 -60 16 -60 12 0 15 7 11 25 -2 15 0 25 7 25 6 0
21 -11 33 -25 12 -14 25 -25 30 -25 5 0 0 10 -12 22 -22 24 -26 38 -10 38 22
0 9 41 -16 50 -53 20 -59 15 -59 -50z m71 29 c7 -12 -12 -29 -33 -29 -7 0 -13
9 -13 20 0 22 34 28 46 9z"/>
<path d="M478 1953 c7 -3 12 -24 12 -53 0 -29 -5 -50 -12 -53 -8 -3 -6 -6 5
-6 11 -1 17 7 17 22 l1 22 18 -22 c11 -13 26 -23 35 -23 10 0 3 12 -19 34 -23
21 -35 42 -35 60 0 18 -5 26 -17 25 -11 0 -13 -3 -5 -6z"/>
<path d="M829 1958 c0 -2 -1 -29 -2 -61 -2 -46 1 -57 13 -57 12 0 15 9 13 38
-3 33 -2 35 8 15 16 -31 22 -29 42 10 l16 32 0 -42 c1 -24 -4 -43 -11 -46 -7
-3 -4 -6 7 -6 18 -1 20 5 19 56 -2 65 -15 78 -34 33 -16 -38 -25 -38 -39 0 -5
17 -15 30 -20 30 -6 0 -11 -1 -12 -2z"/>
<path d="M250 1920 c-11 -7 -7 -10 18 -10 17 0 32 -4 32 -10 0 -5 -13 -10 -29
-10 -18 0 -31 -6 -35 -17 -10 -25 16 -40 59 -35 21 3 33 7 27 11 -6 3 -12 22
-14 41 -3 37 -28 50 -58 30z m48 -52 c-7 -20 -48 -23 -48 -4 0 11 9 16 26 16
16 0 24 -5 22 -12z"/>
<path d="M359 1925 c0 0 -1 -19 -2 -43 -2 -32 2 -42 13 -42 12 0 15 8 12 36
-4 33 -2 35 19 32 27 -3 39 -45 17 -59 -9 -6 -7 -9 8 -9 17 0 20 5 16 33 -6
44 -18 56 -53 54 -16 -1 -29 -2 -30 -2z"/>
<path d="M525 1919 c-4 -6 -5 -12 -2 -15 7 -7 37 7 37 17 0 13 -27 11 -35 -2z"/>
<path d="M627 1924 c-13 -13 -7 -24 14 -24 11 0 19 5 17 12 -5 14 -22 21 -31
12z"/>
<path d="M620 1850 c0 -5 9 -10 20 -10 11 0 20 5 20 10 0 6 -9 10 -20 10 -11
0 -20 -4 -20 -10z"/>
<path d="M115 1100 c0 -48 3 -60 16 -60 12 0 15 7 11 25 -2 15 0 25 7 25 6 0
21 -11 33 -25 12 -14 25 -25 30 -25 5 0 0 10 -12 22 -22 24 -26 38 -10 38 22
0 9 41 -16 50 -53 20 -59 15 -59 -50z m71 29 c7 -12 -12 -29 -33 -29 -7 0 -13
9 -13 20 0 22 34 28 46 9z"/>
<path d="M478 1153 c7 -3 12 -24 12 -53 0 -29 -5 -50 -12 -53 -8 -3 -6 -6 5
-6 11 -1 17 7 17 22 l1 22 18 -22 c11 -13 26 -23 35 -23 10 0 3 12 -19 34 -23
21 -35 42 -35 60 0 18 -5 26 -17 25 -11 0 -13 -3 -5 -6z"/>
<path d="M835 1100 c0 -48 3 -60 16 -60 12 0 15 7 11 25 -3 17 0 25 10 25 8 0
20 -11 26 -25 6 -14 18 -25 26 -25 10 0 5 11 -15 33 l-30 32 26 22 c14 12 20
25 15 28 -12 7 -32 -3 -26 -14 3 -4 -5 -13 -16 -20 -19 -12 -20 -11 -14 13 5
21 3 26 -11 26 -15 0 -18 -9 -18 -60z"/>
<path d="M250 1120 c-11 -7 -7 -10 18 -10 17 0 32 -4 32 -10 0 -5 -13 -10 -29
-10 -18 0 -31 -6 -35 -17 -10 -25 16 -40 59 -35 21 3 33 7 27 11 -6 3 -12 22
-14 41 -3 37 -28 50 -58 30z m48 -52 c-7 -20 -48 -23 -48 -4 0 11 9 16 26 16
16 0 24 -5 22 -12z"/>
<path d="M359 1125 c0 0 -1 -19 -2 -43 -2 -32 2 -42 13 -42 12 0 15 8 12 36
-4 33 -2 35 19 32 27 -3 39 -45 17 -59 -9 -6 -7 -9 8 -9 17 0 20 5 16 33 -6
44 -18 56 -53 54 -16 -1 -29 -2 -30 -2z"/>
<path d="M525 1119 c-4 -6 -5 -12 -2 -15 7 -7 37 7 37 17 0 13 -27 11 -35 -2z"/>
<path d="M627 1124 c-13 -13 -7 -24 14 -24 11 0 19 5 17 12 -5 14 -22 21 -31
12z"/>
<path d="M620 1050 c0 -5 9 -10 20 -10 11 0 20 5 20 10 0 6 -9 10 -20 10 -11
0 -20 -4 -20 -10z"/>
</g>
</svg>
